<svg width="438" height="251" viewBox="0 0 438 251" fill="none" xmlns="http://www.w3.org/2000/svg">
<path d="M282.804 31.5598L312.363 2.00147L388.068 77.707C388.068 77.707 388.067 173.016 388.068 174.827C388.07 176.638 314.776 248.12 314.776 248.12L285.217 218.561L347.652 156.127L347.652 96.4071L282.804 31.5598Z" fill="#7B58DE"/>
<path d="M236.05 78.3087L265.005 49.3536L320.503 104.851L320.503 145.267L264.704 201.066L236.955 173.318L284.007 126.266L236.05 78.3087Z" fill="#7B58DE"/>
<rect x="248.117" y="125.361" width="41.8018" height="41.8018" rx="11.0903" transform="rotate(135 248.117 125.361)" fill="#7B58DE"/>
<path d="M154.227 218.471L124.668 248.03L48.9629 172.324C48.9629 172.324 48.9645 77.0153 48.9629 75.2041C48.9614 73.3928 122.255 1.91151 122.255 1.91151L151.814 31.4698L89.3794 93.9042L89.3794 153.624L154.227 218.471Z" fill="#7B58DE"/>
<path d="M200.981 171.723L172.026 200.678L116.529 145.18L116.529 104.764L172.327 48.9651L200.076 76.7137L153.024 123.766L200.981 171.723Z" fill="#7B58DE"/>
<rect x="188.914" y="124.67" width="41.8018" height="41.8018" rx="11.0903" transform="rotate(-45 188.914 124.67)" fill="#7B58DE"/>
</svg>
